<svg width="24" height="24" viewBox="0 0 24 24" fill="none" xmlns="http://www.w3.org/2000/svg">
<mask id="path-1-inside-1_16_790" fill="white">
<path fill-rule="evenodd" clip-rule="evenodd" d="M0 12C0 6.34315 0 3.51472 1.75736 1.75736C3.51472 0 6.34315 0 12 0C17.6569 0 20.4853 0 22.2426 1.75736C24 3.51472 24 6.34315 24 12C24 16.9795 24 19.7674 22.8013 21.5623L22.9973 17.6557C23.0289 16.9391 22.7775 16.2646 22.2896 15.7547C21.8017 15.2447 21.139 14.9638 20.4237 14.9638C20.3924 14.9638 20.3612 14.9681 20.331 14.9764L19.2901 15.264L19.8088 14.2676H20.4238H20.5637H21.6365C21.7288 14.2676 21.8174 14.231 21.8827 14.1657C21.948 14.1004 21.9846 14.0118 21.9846 13.9195C21.9846 13.8272 21.948 13.7386 21.8827 13.6733C21.8174 13.6081 21.7288 13.5714 21.6365 13.5714H20.4238C20.4219 13.5714 20.4201 13.5714 20.4183 13.5714H19.5976C19.5339 13.5714 19.4714 13.5889 19.4169 13.6219C19.3625 13.655 19.3182 13.7023 19.2887 13.7588L18.8532 14.5956L17.5642 12.1193C17.2692 11.5525 16.5375 11.1085 15.8986 11.1085H8.10144C7.4625 11.1085 6.73083 11.5525 6.43576 12.1193L5.17768 14.5362L4.773 13.7588C4.74359 13.7023 4.69924 13.655 4.64479 13.6219C4.59034 13.5889 4.52787 13.5714 4.46418 13.5714H3.58179C3.57997 13.5714 3.57815 13.5714 3.57632 13.5714H2.36353C2.2712 13.5714 2.18265 13.6081 2.11736 13.6733C2.05207 13.7386 2.0154 13.8272 2.0154 13.9195C2.0154 14.0118 2.05207 14.1004 2.11736 14.1657C2.18265 14.231 2.2712 14.2676 2.36353 14.2676H3.48291H3.57632H4.25299L4.78195 15.2839L3.66896 14.9764C3.63878 14.968 3.6076 14.9638 3.57628 14.9638C2.86098 14.9638 2.19835 15.2447 1.7104 15.7546C1.22245 16.2646 0.971082 16.939 1.00258 17.6536L1.19859 21.5622C0 19.7673 0 16.9794 0 12ZM18.2701 23.7195C18.2805 23.7195 18.2908 23.72 18.3011 23.7209V23.0233H5.76042V23.7209C5.84154 23.728 5.91796 23.7635 5.976 23.8215C5.98437 23.8299 5.99227 23.8386 5.99969 23.8477C7.54747 24 9.49682 24 12 24C14.5031 24 16.4524 24 18.0002 23.8477C18.0076 23.8386 18.0155 23.8299 18.0239 23.8215C18.0892 23.7562 18.1778 23.7195 18.2701 23.7195ZM22.3014 17.6326L22.2152 19.3519H21.5177V19.352C21.5177 19.4443 21.481 19.5329 21.4157 19.5982C21.3504 19.6635 21.2619 19.7001 21.1695 19.7001H18.253C18.1607 19.7001 18.0721 19.6635 18.0069 19.5982C17.9416 19.5329 17.9049 19.4443 17.9049 19.352C17.9049 18.212 18.8322 17.2846 19.9721 17.2846H21.2587C21.351 17.2846 21.4396 17.3213 21.5049 17.3866C21.5701 17.4518 21.6068 17.5403 21.6068 17.6326H22.3014ZM18.011 15.6174L18.3734 15.5173L18.4608 15.3495L16.9467 12.4408C16.7703 12.1019 16.2806 11.8047 15.8986 11.8047H8.10162C7.71967 11.8047 7.22982 12.102 7.05348 12.4408L5.57023 15.2904L5.69868 15.5372L6.0429 15.6323L7.54032 12.7555C7.65234 12.5403 8.01362 12.321 8.25618 12.321H15.8055C16.0481 12.321 16.4094 12.5403 16.5213 12.7555L18.011 15.6174ZM1.78488 19.3519L1.69866 17.6326H2.39322C2.39324 17.5403 2.42992 17.4518 2.49519 17.3866C2.56047 17.3213 2.64902 17.2846 2.74135 17.2846H4.02788C5.1678 17.2846 6.09515 18.212 6.09515 19.352C6.09515 19.4443 6.05847 19.5328 5.99319 19.5981C5.9279 19.6634 5.83935 19.7001 5.74702 19.7001H2.83052C2.73818 19.7001 2.64963 19.6634 2.58435 19.5981C2.51906 19.5328 2.48238 19.4443 2.48238 19.352V19.3519H1.78488ZM15.8919 21.6295C15.8817 21.6304 15.8714 21.6309 15.8611 21.6309C15.7688 21.6309 15.6802 21.5942 15.6149 21.5289C15.5496 21.4636 15.513 21.3751 15.513 21.2828V20.7005H8.48705V21.2828C8.48705 21.3751 8.45037 21.4636 8.38508 21.5289C8.32712 21.5869 8.25081 21.6223 8.16981 21.6295V21.8399H15.8919V21.6295Z"/>
</mask>
<path fill-rule="evenodd" clip-rule="evenodd" d="M0 12C0 6.34315 0 3.51472 1.75736 1.75736C3.51472 0 6.34315 0 12 0C17.6569 0 20.4853 0 22.2426 1.75736C24 3.51472 24 6.34315 24 12C24 16.9795 24 19.7674 22.8013 21.5623L22.9973 17.6557C23.0289 16.9391 22.7775 16.2646 22.2896 15.7547C21.8017 15.2447 21.139 14.9638 20.4237 14.9638C20.3924 14.9638 20.3612 14.9681 20.331 14.9764L19.2901 15.264L19.8088 14.2676H20.4238H20.5637H21.6365C21.7288 14.2676 21.8174 14.231 21.8827 14.1657C21.948 14.1004 21.9846 14.0118 21.9846 13.9195C21.9846 13.8272 21.948 13.7386 21.8827 13.6733C21.8174 13.6081 21.7288 13.5714 21.6365 13.5714H20.4238C20.4219 13.5714 20.4201 13.5714 20.4183 13.5714H19.5976C19.5339 13.5714 19.4714 13.5889 19.4169 13.6219C19.3625 13.655 19.3182 13.7023 19.2887 13.7588L18.8532 14.5956L17.5642 12.1193C17.2692 11.5525 16.5375 11.1085 15.8986 11.1085H8.10144C7.4625 11.1085 6.73083 11.5525 6.43576 12.1193L5.17768 14.5362L4.773 13.7588C4.74359 13.7023 4.69924 13.655 4.64479 13.6219C4.59034 13.5889 4.52787 13.5714 4.46418 13.5714H3.58179C3.57997 13.5714 3.57815 13.5714 3.57632 13.5714H2.36353C2.2712 13.5714 2.18265 13.6081 2.11736 13.6733C2.05207 13.7386 2.0154 13.8272 2.0154 13.9195C2.0154 14.0118 2.05207 14.1004 2.11736 14.1657C2.18265 14.231 2.2712 14.2676 2.36353 14.2676H3.48291H3.57632H4.25299L4.78195 15.2839L3.66896 14.9764C3.63878 14.968 3.6076 14.9638 3.57628 14.9638C2.86098 14.9638 2.19835 15.2447 1.7104 15.7546C1.22245 16.2646 0.971082 16.939 1.00258 17.6536L1.19859 21.5622C0 19.7673 0 16.9794 0 12ZM18.2701 23.7195C18.2805 23.7195 18.2908 23.72 18.3011 23.7209V23.0233H5.76042V23.7209C5.84154 23.728 5.91796 23.7635 5.976 23.8215C5.98437 23.8299 5.99227 23.8386 5.99969 23.8477C7.54747 24 9.49682 24 12 24C14.5031 24 16.4524 24 18.0002 23.8477C18.0076 23.8386 18.0155 23.8299 18.0239 23.8215C18.0892 23.7562 18.1778 23.7195 18.2701 23.7195ZM22.3014 17.6326L22.2152 19.3519H21.5177V19.352C21.5177 19.4443 21.481 19.5329 21.4157 19.5982C21.3504 19.6635 21.2619 19.7001 21.1695 19.7001H18.253C18.1607 19.7001 18.0721 19.6635 18.0069 19.5982C17.9416 19.5329 17.9049 19.4443 17.9049 19.352C17.9049 18.212 18.8322 17.2846 19.9721 17.2846H21.2587C21.351 17.2846 21.4396 17.3213 21.5049 17.3866C21.5701 17.4518 21.6068 17.5403 21.6068 17.6326H22.3014ZM18.011 15.6174L18.3734 15.5173L18.4608 15.3495L16.9467 12.4408C16.7703 12.1019 16.2806 11.8047 15.8986 11.8047H8.10162C7.71967 11.8047 7.22982 12.102 7.05348 12.4408L5.57023 15.2904L5.69868 15.5372L6.0429 15.6323L7.54032 12.7555C7.65234 12.5403 8.01362 12.321 8.25618 12.321H15.8055C16.0481 12.321 16.4094 12.5403 16.5213 12.7555L18.011 15.6174ZM1.78488 19.3519L1.69866 17.6326H2.39322C2.39324 17.5403 2.42992 17.4518 2.49519 17.3866C2.56047 17.3213 2.64902 17.2846 2.74135 17.2846H4.02788C5.1678 17.2846 6.09515 18.212 6.09515 19.352C6.09515 19.4443 6.05847 19.5328 5.99319 19.5981C5.9279 19.6634 5.83935 19.7001 5.74702 19.7001H2.83052C2.73818 19.7001 2.64963 19.6634 2.58435 19.5981C2.51906 19.5328 2.48238 19.4443 2.48238 19.352V19.3519H1.78488ZM15.8919 21.6295C15.8817 21.6304 15.8714 21.6309 15.8611 21.6309C15.7688 21.6309 15.6802 21.5942 15.6149 21.5289C15.5496 21.4636 15.513 21.3751 15.513 21.2828V20.7005H8.48705V21.2828C8.48705 21.3751 8.45037 21.4636 8.38508 21.5289C8.32712 21.5869 8.25081 21.6223 8.16981 21.6295V21.8399H15.8919V21.6295Z" fill="#C3F731"/>
<path d="M22.8013 21.5623L21.8026 21.5122L21.6211 25.1302L23.6329 22.1177L22.8013 21.5623ZM22.9973 17.6557L23.9961 17.7058L23.9963 17.6998L22.9973 17.6557ZM22.2896 15.7547L21.567 16.446L21.567 16.446L22.2896 15.7547ZM20.4237 14.9638L20.4237 13.9638L20.4235 13.9638L20.4237 14.9638ZM20.331 14.9764L20.5973 15.9403L20.5976 15.9402L20.331 14.9764ZM19.2901 15.264L18.4031 14.8023L17.3427 16.8395L19.5564 16.2279L19.2901 15.264ZM19.8088 14.2676V13.2676H19.2019L18.9217 13.8059L19.8088 14.2676ZM21.8827 14.1657L22.5898 14.8728L22.5898 14.8728L21.8827 14.1657ZM21.8827 13.6733L22.5898 12.9662L22.5898 12.9662L21.8827 13.6733ZM20.4183 13.5714V14.5714H20.4261L20.434 14.5713L20.4183 13.5714ZM19.5976 13.5714L19.5975 14.5714H19.5976V13.5714ZM19.4169 13.6219L19.9357 14.4769L19.9357 14.4768L19.4169 13.6219ZM19.2887 13.7588L18.4017 13.2971L18.4017 13.2971L19.2887 13.7588ZM18.8532 14.5956L17.9662 15.0573L18.8532 16.7614L19.7402 15.0573L18.8532 14.5956ZM17.5642 12.1193L16.6772 12.581L16.6772 12.581L17.5642 12.1193ZM6.43576 12.1193L5.54874 11.6576L5.54874 11.6576L6.43576 12.1193ZM5.17768 14.5362L4.29065 14.998L5.17768 16.7021L6.0647 14.998L5.17768 14.5362ZM4.773 13.7588L5.66003 13.2971L5.65995 13.2969L4.773 13.7588ZM4.46418 13.5714L4.46427 12.5714H4.46418V13.5714ZM3.58179 13.5714L3.56609 14.5713L3.57394 14.5714H3.58179V13.5714ZM4.25299 14.2676L5.14002 13.8059L4.85984 13.2676H4.25299V14.2676ZM4.78195 15.2839L4.51565 16.2478L6.72936 16.8593L5.66898 14.8221L4.78195 15.2839ZM3.66896 14.9764L3.40178 15.94L3.40267 15.9403L3.66896 14.9764ZM3.57628 14.9638L3.57628 15.9638L3.5767 15.9638L3.57628 14.9638ZM1.7104 15.7546L0.987881 15.0633L0.987852 15.0633L1.7104 15.7546ZM1.00258 17.6536L0.00352941 17.6977L0.00383297 17.7037L1.00258 17.6536ZM1.19859 21.5622L0.36696 22.1175L2.37878 25.1302L2.19733 21.5121L1.19859 21.5622ZM18.3011 23.7209L18.2122 24.717L19.3011 24.8141V23.7209H18.3011ZM18.3011 23.0233H19.3011V22.0233H18.3011V23.0233ZM5.76042 23.0233V22.0233H4.76042V23.0233H5.76042ZM5.76042 23.7209H4.76042V24.6366L5.67259 24.717L5.76042 23.7209ZM5.976 23.8215L6.6831 23.1144L6.6831 23.1144L5.976 23.8215ZM5.99969 23.8477L5.22451 24.4795L5.4875 24.8022L5.90178 24.8429L5.99969 23.8477ZM18.0002 23.8477L18.0981 24.8429L18.5124 24.8022L18.7754 24.4795L18.0002 23.8477ZM18.0239 23.8215L17.3168 23.1144L17.3168 23.1144L18.0239 23.8215ZM22.2152 19.3519V20.3519H23.1663L23.2139 19.402L22.2152 19.3519ZM22.3014 17.6326L23.3001 17.6827L23.3528 16.6326H22.3014V17.6326ZM21.5177 19.3519V18.3519H20.5177V19.3519H21.5177ZM17.9049 19.352L18.9049 19.352L18.9049 19.352L17.9049 19.352ZM21.6068 17.6326L20.6068 17.633L20.6072 18.6326H21.6068V17.6326ZM18.3734 15.5173L18.6397 16.4812L19.0594 16.3652L19.2604 15.979L18.3734 15.5173ZM18.011 15.6174L17.124 16.0791L17.4975 16.7968L18.2773 16.5813L18.011 15.6174ZM18.4608 15.3495L19.3478 15.8112L19.5881 15.3495L19.3478 14.8878L18.4608 15.3495ZM16.9467 12.4408L17.8338 11.9791L17.8338 11.9791L16.9467 12.4408ZM7.05348 12.4408L7.94051 12.9025L7.94052 12.9025L7.05348 12.4408ZM5.57023 15.2904L4.6832 14.8287L4.44287 15.2904L4.6832 15.7521L5.57023 15.2904ZM5.69868 15.5372L4.81166 15.9989L5.0127 16.3851L5.43239 16.5011L5.69868 15.5372ZM6.0429 15.6323L5.7766 16.5962L6.5564 16.8116L6.92993 16.094L6.0429 15.6323ZM7.54032 12.7555L6.65334 12.2936L6.65329 12.2937L7.54032 12.7555ZM16.5213 12.7555L15.6343 13.2171L15.6343 13.2172L16.5213 12.7555ZM1.69866 17.6326V16.6326H0.647253L0.699918 17.6827L1.69866 17.6326ZM1.78488 19.3519L0.78614 19.402L0.83378 20.3519H1.78488V19.3519ZM2.39322 17.6326V18.6326H3.39297L3.39322 17.6329L2.39322 17.6326ZM2.49519 17.3866L3.2023 18.0937L3.20231 18.0937L2.49519 17.3866ZM2.48238 19.3519H3.48238V18.3519H2.48238V19.3519ZM15.8919 21.6295H16.8919V20.5367L15.8034 20.6335L15.8919 21.6295ZM15.6149 21.5289L14.9078 22.236L14.9078 22.2361L15.6149 21.5289ZM15.513 20.7005H16.513V19.7005H15.513V20.7005ZM8.48705 20.7005V19.7005H7.48705V20.7005H8.48705ZM8.38508 21.5289L9.09218 22.2361L9.09219 22.236L8.38508 21.5289ZM8.16981 21.6295L8.08111 20.6335L7.16981 20.7146V21.6295H8.16981ZM8.16981 21.8399H7.16981V22.8399H8.16981V21.8399ZM15.8919 21.8399V22.8399H16.8919V21.8399H15.8919ZM1.05025 1.05025C-0.0451961 2.1457 -0.536834 3.53835 -0.771413 5.28312C-1.00212 6.99913 -1 9.19984 -1 12H1C1 9.1433 1.00212 7.10138 1.21075 5.54962C1.41551 4.02662 1.80256 3.12638 2.46447 2.46447L1.05025 1.05025ZM12 -1C9.19984 -1 6.99913 -1.00212 5.28312 -0.771413C3.53835 -0.536834 2.1457 -0.0451961 1.05025 1.05025L2.46447 2.46447C3.12638 1.80256 4.02662 1.41551 5.54962 1.21075C7.10138 1.00212 9.1433 1 12 1V-1ZM22.9497 1.05025C21.8543 -0.0451962 20.4617 -0.536834 18.7169 -0.771413C17.0009 -1.00212 14.8002 -1 12 -1V1C14.8567 1 16.8986 1.00212 18.4504 1.21075C19.9734 1.41551 20.8736 1.80256 21.5355 2.46447L22.9497 1.05025ZM25 12C25 9.19984 25.0021 6.99913 24.7714 5.28312C24.5368 3.53835 24.0452 2.1457 22.9497 1.05025L21.5355 2.46447C22.1974 3.12638 22.5845 4.02662 22.7892 5.54962C22.9979 7.10138 23 9.1433 23 12H25ZM23.6329 22.1177C24.3671 21.0183 24.6895 19.6791 24.8455 18.072C25.0011 16.4689 25 14.4707 25 12H23C23 14.5088 22.9989 16.3943 22.8548 17.8788C22.7112 19.3592 22.4342 20.3114 21.9697 21.0069L23.6329 22.1177ZM21.9985 17.6056L21.8026 21.5122L23.8001 21.6124L23.996 17.7058L21.9985 17.6056ZM21.567 16.446C21.8632 16.7555 22.0181 17.163 21.9983 17.6116L23.9963 17.6998C24.0398 16.7151 23.6918 15.7737 23.0121 15.0634L21.567 16.446ZM20.4237 15.9638C20.8703 15.9638 21.2706 16.1362 21.567 16.446L23.0122 15.0634C22.3327 14.3532 21.4077 13.9638 20.4237 13.9638V15.9638ZM20.5976 15.9402C20.541 15.9559 20.4826 15.9638 20.424 15.9638L20.4235 13.9638C20.3022 13.9639 20.1814 13.9803 20.0645 14.0126L20.5976 15.9402ZM19.5564 16.2279L20.5973 15.9403L20.0647 14.0125L19.0238 14.3001L19.5564 16.2279ZM18.9217 13.8059L18.4031 14.8023L20.1772 15.7257L20.6958 14.7294L18.9217 13.8059ZM20.4238 13.2676H19.8088V15.2676H20.4238V13.2676ZM20.5637 13.2676H20.4238V15.2676H20.5637V13.2676ZM21.6365 13.2676H20.5637V15.2676H21.6365V13.2676ZM21.1756 13.4586C21.2978 13.3363 21.4636 13.2676 21.6365 13.2676V15.2676C21.9941 15.2676 22.337 15.1256 22.5898 14.8728L21.1756 13.4586ZM20.9846 13.9195C20.9846 13.7466 21.0533 13.5808 21.1756 13.4586L22.5898 14.8728C22.8426 14.62 22.9846 14.2771 22.9846 13.9195H20.9846ZM21.1756 14.3805C21.0533 14.2582 20.9846 14.0924 20.9846 13.9195H22.9846C22.9846 13.562 22.8426 13.2191 22.5898 12.9662L21.1756 14.3805ZM21.6365 14.5714C21.4636 14.5714 21.2978 14.5027 21.1756 14.3805L22.5898 12.9662C22.337 12.7134 21.9941 12.5714 21.6365 12.5714V14.5714ZM20.4238 14.5714H21.6365V12.5714H20.4238V14.5714ZM20.434 14.5713C20.4306 14.5714 20.4272 14.5714 20.4238 14.5714V12.5714C20.4167 12.5714 20.4097 12.5714 20.4026 12.5715L20.434 14.5713ZM19.5976 14.5714H20.4183V12.5714H19.5976V14.5714ZM19.9357 14.4768C19.8338 14.5387 19.7168 14.5714 19.5975 14.5714L19.5976 12.5714C19.351 12.5714 19.109 12.6391 18.8982 12.767L19.9357 14.4768ZM20.1758 14.2206C20.1207 14.3263 20.0377 14.415 19.9357 14.4769L18.8982 12.767C18.6873 12.895 18.5156 13.0783 18.4017 13.2971L20.1758 14.2206ZM19.7402 15.0573L20.1758 14.2205L18.4017 13.2971L17.9662 14.1339L19.7402 15.0573ZM16.6772 12.581L17.9662 15.0573L19.7402 14.1339L18.4513 11.6576L16.6772 12.581ZM15.8986 12.1085C15.9989 12.1085 16.1642 12.1485 16.3416 12.2562C16.519 12.3639 16.6309 12.492 16.6772 12.581L18.4513 11.6576C18.2026 11.1798 17.8011 10.8025 17.3792 10.5464C16.9573 10.2904 16.4372 10.1085 15.8986 10.1085V12.1085ZM8.10144 12.1085H15.8986V10.1085H8.10144V12.1085ZM7.32278 12.581C7.36913 12.492 7.48102 12.3639 7.65844 12.2562C7.83588 12.1485 8.00114 12.1085 8.10144 12.1085V10.1085C7.56281 10.1085 7.04276 10.2904 6.62085 10.5464C6.19894 10.8024 5.79746 11.1798 5.54874 11.6576L7.32278 12.581ZM6.0647 14.998L7.32279 12.581L5.54874 11.6576L4.29065 14.0745L6.0647 14.998ZM3.88598 14.2205L4.29065 14.998L6.0647 14.0745L5.66003 13.2971L3.88598 14.2205ZM4.12603 14.4769C4.02412 14.415 3.94112 14.3264 3.88605 14.2207L5.65995 13.2969C5.54605 13.0782 5.37435 12.8949 5.16355 12.767L4.12603 14.4769ZM4.46409 14.5714C4.34487 14.5714 4.22794 14.5387 4.12603 14.4769L5.16355 12.767C4.95274 12.6391 4.71088 12.5714 4.46427 12.5714L4.46409 14.5714ZM3.58179 14.5714H4.46418V12.5714H3.58179V14.5714ZM3.57632 14.5714C3.57292 14.5714 3.56951 14.5714 3.56609 14.5713L3.5975 12.5715C3.59043 12.5714 3.58337 12.5714 3.57632 12.5714V14.5714ZM2.36353 14.5714H3.57632V12.5714H2.36353V14.5714ZM2.82447 14.3805C2.70222 14.5027 2.53642 14.5714 2.36353 14.5714V12.5714C2.00598 12.5714 1.66308 12.7134 1.41025 12.9662L2.82447 14.3805ZM3.0154 13.9195C3.0154 14.0924 2.94672 14.2582 2.82447 14.3805L1.41025 12.9662C1.15743 13.2191 1.0154 13.562 1.0154 13.9195H3.0154ZM2.82447 13.4586C2.94672 13.5808 3.0154 13.7466 3.0154 13.9195H1.0154C1.0154 14.2771 1.15743 14.62 1.41025 14.8728L2.82447 13.4586ZM2.36353 13.2676C2.53641 13.2676 2.70222 13.3363 2.82447 13.4586L1.41025 14.8728C1.66308 15.1256 2.00599 15.2676 2.36353 15.2676V13.2676ZM3.48291 13.2676H2.36353V15.2676H3.48291V13.2676ZM3.57632 13.2676H3.48291V15.2676H3.57632V13.2676ZM4.25299 13.2676H3.57632V15.2676H4.25299V13.2676ZM5.66898 14.8221L5.14002 13.8059L3.36596 14.7294L3.89492 15.7456L5.66898 14.8221ZM3.40267 15.9403L4.51565 16.2478L5.04824 14.32L3.93526 14.0125L3.40267 15.9403ZM3.5767 15.9638C3.5176 15.9638 3.45875 15.9558 3.40178 15.94L3.93614 14.0127C3.8188 13.9802 3.6976 13.9637 3.57585 13.9638L3.5767 15.9638ZM2.43292 16.446C2.72942 16.1361 3.12974 15.9638 3.57628 15.9638V13.9638C2.59221 13.9638 1.66729 14.3532 0.987881 15.0633L2.43292 16.446ZM2.00161 17.6096C1.98194 17.1634 2.13646 16.7558 2.43295 16.4459L0.987852 15.0633C0.308434 15.7734 -0.039779 16.7146 0.00354776 17.6977L2.00161 17.6096ZM2.19733 21.5121L2.00132 17.6035L0.00383297 17.7037L0.199841 21.6123L2.19733 21.5121ZM-1 12C-1 14.4707 -1.00108 16.4688 -0.8455 18.0719C-0.689529 19.679 -0.36715 21.0182 0.36696 22.1175L2.03021 21.0068C1.56574 20.3113 1.28882 19.3591 1.14515 17.8787C1.00108 16.3943 1 14.5087 1 12H-1ZM18.3899 22.7249C18.3503 22.7213 18.3104 22.7195 18.2701 22.7195V24.7195C18.2506 24.7195 18.2313 24.7187 18.2122 24.717L18.3899 22.7249ZM17.3011 23.0233V23.7209H19.3011V23.0233H17.3011ZM5.76042 24.0233H18.3011V22.0233H5.76042V24.0233ZM6.76042 23.7209V23.0233H4.76042V23.7209H6.76042ZM6.6831 23.1144C6.45833 22.8896 6.16241 22.7524 5.84826 22.7247L5.67259 24.717C5.52067 24.7036 5.37758 24.6373 5.26889 24.5286L6.6831 23.1144ZM6.77487 23.216C6.74625 23.1809 6.71566 23.1469 6.6831 23.1144L5.26889 24.5286C5.25309 24.5128 5.23829 24.4964 5.22451 24.4795L6.77487 23.216ZM12 23C9.47749 23 7.58524 22.9989 6.0976 22.8525L5.90178 24.8429C7.50971 25.0011 9.51615 25 12 25V23ZM17.9023 22.8525C16.4147 22.9989 14.5225 23 12 23V25C14.4838 25 16.4902 25.0011 18.0981 24.8429L17.9023 22.8525ZM17.3168 23.1144C17.2842 23.147 17.2536 23.181 17.2251 23.216L18.7754 24.4795C18.7617 24.4963 18.7469 24.5127 18.731 24.5286L17.3168 23.1144ZM18.2701 22.7195C17.9125 22.7195 17.5696 22.8616 17.3168 23.1144L18.731 24.5286C18.6088 24.6508 18.443 24.7195 18.2701 24.7195V22.7195ZM23.2139 19.402L23.3001 17.6827L21.3027 17.5825L21.2164 19.3018L23.2139 19.402ZM21.5177 20.3519H22.2152V18.3519H21.5177V20.3519ZM22.5177 19.352V19.3519H20.5177V19.352H22.5177ZM22.1228 20.3053C22.3756 20.0525 22.5177 19.7096 22.5177 19.352H20.5177C20.5177 19.1791 20.5863 19.0133 20.7086 18.8911L22.1228 20.3053ZM21.1695 20.7001C21.5271 20.7001 21.87 20.5581 22.1228 20.3053L20.7086 18.8911C20.8308 18.7688 20.9966 18.7001 21.1695 18.7001V20.7001ZM18.253 20.7001H21.1695V18.7001H18.253V20.7001ZM17.2998 20.3053C17.5526 20.5581 17.8955 20.7001 18.253 20.7001V18.7001C18.4259 18.7001 18.5917 18.7688 18.714 18.8911L17.2998 20.3053ZM16.9049 19.352C16.9049 19.7096 17.0469 20.0525 17.2998 20.3053L18.714 18.8911C18.8362 19.0133 18.9049 19.1791 18.9049 19.352H16.9049ZM19.9721 16.2846C18.2799 16.2846 16.9048 17.6598 16.9049 19.352L18.9049 19.352C18.9049 18.7642 19.3845 18.2846 19.9721 18.2846V16.2846ZM21.2587 16.2846H19.9721V18.2846H21.2587V16.2846ZM22.212 16.6795C21.9591 16.4266 21.6162 16.2846 21.2587 16.2846V18.2846C21.0858 18.2846 20.92 18.2159 20.7978 18.0937L22.212 16.6795ZM22.6068 17.6322C22.6067 17.2749 22.4647 16.9322 22.212 16.6795L20.7978 18.0937C20.6756 17.9715 20.6069 17.8058 20.6068 17.633L22.6068 17.6322ZM22.3014 16.6326H21.6068V18.6326H22.3014V16.6326ZM18.1071 14.5534L17.7447 14.6535L18.2773 16.5813L18.6397 16.4812L18.1071 14.5534ZM17.5737 14.8878L17.4864 15.0556L19.2604 15.979L19.3478 15.8112L17.5737 14.8878ZM16.0597 12.9025L17.5737 15.8112L19.3478 14.8878L17.8338 11.9791L16.0597 12.9025ZM15.8986 12.8047C15.8685 12.8047 15.8656 12.7997 15.8906 12.8078C15.9136 12.8153 15.9458 12.8293 15.981 12.8506C16.0161 12.8719 16.0434 12.894 16.0606 12.911C16.0794 12.9294 16.0736 12.9292 16.0597 12.9025L17.8338 11.9791C17.6371 11.6013 17.3159 11.3212 17.0186 11.1408C16.7213 10.9604 16.3245 10.8047 15.8986 10.8047V12.8047ZM8.10162 12.8047H15.8986V10.8047H8.10162V12.8047ZM7.94052 12.9025C7.9266 12.9292 7.9208 12.9295 7.93956 12.911C7.95679 12.894 7.98409 12.8719 8.01924 12.8506C8.05439 12.8293 8.08662 12.8153 8.10963 12.8078C8.13467 12.7997 8.13176 12.8047 8.10162 12.8047V10.8047C7.6757 10.8047 7.27891 10.9604 6.98165 11.1408C6.68439 11.3212 6.36309 11.6013 6.16644 11.9791L7.94052 12.9025ZM6.45726 15.7521L7.94051 12.9025L6.16645 11.9791L4.6832 14.8287L6.45726 15.7521ZM6.58571 15.0754L6.45725 14.8287L4.6832 15.7521L4.81166 15.9989L6.58571 15.0754ZM6.30919 14.6684L5.96498 14.5733L5.43239 16.5011L5.7766 16.5962L6.30919 14.6684ZM6.65329 12.2937L5.15587 15.1706L6.92993 16.094L8.42735 13.2172L6.65329 12.2937ZM8.25618 11.321C7.88033 11.321 7.54623 11.4717 7.33049 11.6027C7.11473 11.7336 6.82687 11.9604 6.65334 12.2936L8.42729 13.2173C8.40716 13.2559 8.38822 13.282 8.37696 13.2962C8.36535 13.3108 8.35715 13.3189 8.35456 13.3213C8.35051 13.3252 8.35527 13.3202 8.3681 13.3125C8.38094 13.3047 8.38751 13.3027 8.3822 13.3046C8.37881 13.3057 8.36787 13.3093 8.3495 13.3128C8.33168 13.3163 8.2998 13.321 8.25618 13.321V11.321ZM15.8055 11.321H8.25618V13.321H15.8055V11.321ZM17.4084 12.2938C17.2349 11.9604 16.947 11.7336 16.7312 11.6027C16.5154 11.4717 16.1813 11.321 15.8055 11.321V13.321C15.7619 13.321 15.73 13.3163 15.7122 13.3128C15.6938 13.3093 15.6829 13.3057 15.6795 13.3046C15.6742 13.3027 15.6808 13.3047 15.6936 13.3125C15.7064 13.3202 15.7112 13.3252 15.7071 13.3213C15.7045 13.3188 15.6963 13.3108 15.6847 13.2961C15.6734 13.2819 15.6544 13.2558 15.6343 13.2171L17.4084 12.2938ZM18.8981 15.1557L17.4084 12.2937L15.6343 13.2172L17.124 16.0791L18.8981 15.1557ZM0.699918 17.6827L0.78614 19.402L2.78363 19.3018L2.69741 17.5826L0.699918 17.6827ZM2.39322 16.6326H1.69866V18.6326H2.39322V16.6326ZM1.78808 16.6795C1.53534 16.9322 1.39331 17.275 1.39322 17.6324L3.39322 17.6329C3.39318 17.8057 3.3245 17.9715 3.2023 18.0937L1.78808 16.6795ZM2.74135 16.2846C2.38382 16.2846 2.04091 16.4266 1.78807 16.6795L3.20231 18.0937C3.08004 18.2159 2.91423 18.2846 2.74135 18.2846V16.2846ZM4.02788 16.2846H2.74135V18.2846H4.02788V16.2846ZM7.09515 19.352C7.09515 17.6597 5.72012 16.2846 4.02788 16.2846V18.2846C4.61547 18.2846 5.09515 18.7642 5.09515 19.352H7.09515ZM6.70029 20.3052C6.95312 20.0524 7.09515 19.7095 7.09515 19.352H5.09515C5.09515 19.1791 5.16382 19.0133 5.28608 18.891L6.70029 20.3052ZM5.74702 20.7001C6.10457 20.7001 6.44747 20.5581 6.70029 20.3052L5.28608 18.891C5.40833 18.7688 5.57413 18.7001 5.74702 18.7001V20.7001ZM2.83052 20.7001H5.74702V18.7001H2.83052V20.7001ZM1.87724 20.3052C2.13007 20.5581 2.47297 20.7001 2.83052 20.7001V18.7001C3.00339 18.7001 3.1692 18.7688 3.29145 18.891L1.87724 20.3052ZM1.48238 19.352C1.48238 19.7095 1.62441 20.0524 1.87724 20.3052L3.29145 18.891C3.41371 19.0133 3.48238 19.1791 3.48238 19.352H1.48238ZM1.48238 19.3519V19.352H3.48238V19.3519H1.48238ZM1.78488 20.3519H2.48238V18.3519H1.78488V20.3519ZM15.8034 20.6335C15.8224 20.6318 15.8417 20.6309 15.8611 20.6309V22.6309C15.9012 22.6309 15.941 22.6291 15.9804 22.6256L15.8034 20.6335ZM15.8611 20.6309C16.034 20.6309 16.1998 20.6996 16.322 20.8218L14.9078 22.2361C15.1606 22.4889 15.5035 22.6309 15.8611 22.6309V20.6309ZM16.322 20.8218C16.4443 20.9441 16.513 21.1099 16.513 21.2828H14.513C14.513 21.6403 14.655 21.9832 14.9078 22.236L16.322 20.8218ZM16.513 21.2828V20.7005H14.513V21.2828H16.513ZM15.513 19.7005H8.48705V21.7005H15.513V19.7005ZM7.48705 20.7005V21.2828H9.48705V20.7005H7.48705ZM7.48705 21.2828C7.48705 21.1099 7.55572 20.9441 7.67797 20.8218L9.09219 22.236C9.34502 21.9832 9.48705 21.6403 9.48705 21.2828H7.48705ZM7.67799 20.8218C7.78654 20.7133 7.92939 20.647 8.08111 20.6335L8.25851 22.6256C8.57223 22.5977 8.86769 22.4605 9.09218 22.2361L7.67799 20.8218ZM9.16981 21.8399V21.6295H7.16981V21.8399H9.16981ZM15.8919 20.8399H8.16981V22.8399H15.8919V20.8399ZM14.8919 21.6295V21.8399H16.8919V21.6295H14.8919Z" fill="#C3F731" mask="url(#path-1-inside-1_16_790)"/>
</svg>
